# xmcd
#
# Track frame offsets: 
#        150
#        4991
#        25696
#        44669
#        65337
#        91456
#        109500
#        143330
#        177951
#        202335
#        225099
#        241798
#        266072
#        280489
#        310999
#
# Disc length: 4335 seconds
#
# Revision: 0
# Processed by: cddbd v1.5.2PL0 Copyright (c) Steve Scherf et al.
# Submitted via: ExactAudioCopy v0.95b4
#
DISCID=ca10ed0f
DTITLE=Mike Milligan and Steam Shovel - Live
DYEAR=2004
DGENRE=Blues
TTITLE0=Intro
TTITLE1=Gone to Austin
TTITLE2=Do Whatcha Gotta Do
TTITLE3=On the Day
TTITLE4=Good Days to Come
TTITLE5=What's Goin' On
TTITLE6=Frustrated
TTITLE7=Love and Happiness
TTITLE8=Like Father, Like Son
TTITLE9=Big Black Cadillac
TTITLE10=Big Wide Grin
TTITLE11=Fear Running Scared
TTITLE12=If You Don't Change
TTITLE13=Home to Kokomo
TTITLE14=When I Get There
EXTD=
EXTT0=
EXTT1=
EXTT2=
EXTT3=
EXTT4=
EXTT5=
EXTT6=
EXTT7=
EXTT8=
EXTT9=
EXTT10=
EXTT11=
EXTT12=
EXTT13=
EXTT14=
PLAYORDER=
